<?xml version="1.0" standalone="no"?>
<!DOCTYPE svg PUBLIC "-//W3C//DTD SVG 20010904//EN"
 "http://www.w3.org/TR/2001/REC-SVG-20010904/DTD/svg10.dtd">
<svg version="1.0" xmlns="http://www.w3.org/2000/svg"
 width="120.000000pt" height="120.000000pt" viewBox="0 0 120.000000 120.000000"
 preserveAspectRatio="xMidYMid meet">
<metadata>
Created by potrace 1.14, written by Peter Selinger 2001-2017
</metadata>
<g transform="translate(0.000000,120.000000) scale(0.100000,-0.100000)"
fill="#000000" stroke="none">
<path d="M475 1186 c-166 -40 -312 -172 -372 -336 -25 -66 -28 -88 -27 -185 1
-123 19 -189 76 -279 102 -159 267 -247 461 -247 228 1 441 170 501 396 69
262 -81 543 -339 637 -72 25 -223 33 -300 14z m144 -32 c-15 -18 -28 -18 -36
2 -8 20 17 36 34 22 10 -8 10 -14 2 -24z m81 21 c0 2 30 -7 66 -21 211 -79
338 -259 339 -479 0 -153 -47 -267 -147 -361 -54 -49 -124 -95 -145 -94 -4 1
10 10 31 21 47 25 124 101 158 155 36 57 68 148 74 213 4 31 7 58 7 61 0 3 -3
30 -7 60 -19 130 -91 248 -198 322 -72 51 -107 67 -186 82 -38 8 -57 17 -58
26 -1 25 5 29 36 20 17 -5 30 -7 30 -5z m35 -70 c191 -64 310 -221 320 -421 5
-94 -18 -176 -71 -260 -61 -98 -164 -172 -279 -201 -83 -21 -221 -4 -314 40
-60 28 -162 129 -195 195 -115 227 -26 504 196 615 113 56 236 68 343 32z
m-365 1 c0 -2 -18 -15 -41 -30 -54 -36 -89 -71 -125 -126 -28 -41 -56 -101
-60 -125 -1 -5 -7 -30 -14 -55 -30 -107 -3 -247 69 -357 70 -109 175 -181 302
-207 36 -7 64 -18 63 -24 -1 -7 -2 -16 -2 -21 -3 -14 -118 16 -188 49 -257
123 -356 445 -219 711 24 45 122 142 171 167 43 23 44 24 44 18z m247 -940
c-4 -9 -11 -16 -17 -16 -17 0 -24 31 -9 41 18 11 34 -5 26 -25z"/>
<path d="M488 984 c-81 -15 -127 -40 -135 -73 -8 -32 6 -52 52 -75 38 -19 52
-22 135 -33 34 -4 46 -9 46 -22 0 -10 -9 -18 -19 -18 -21 -2 -87 -44 -87 -55
0 -23 -20 -1 -45 48 -29 57 -50 84 -65 84 -17 0 31 -108 66 -151 11 -13 9 -21
-12 -53 -35 -52 -74 -149 -74 -185 0 -70 107 -110 276 -106 137 4 224 41 224
94 0 49 -77 90 -178 94 -38 1 -52 6 -55 19 -4 12 4 20 28 28 18 6 46 22 61 35
l29 25 31 -58 c31 -55 64 -96 71 -88 8 7 -42 118 -64 142 -23 25 -23 26 -4 52
28 40 61 109 75 156 14 46 7 81 -22 103 -53 41 -217 59 -334 37z m106 -32 c-7
-4 -11 -30 -10 -63 l2 -57 -40 5 c-97 10 -170 41 -160 68 5 13 62 38 109 48
35 8 111 7 99 -1z m205 -31 c19 -16 22 -26 16 -53 -7 -34 -59 -146 -75 -162
-5 -5 -21 3 -37 18 -15 15 -38 29 -51 32 -30 8 -50 44 -25 45 48 2 80 10 122
32 35 17 47 29 49 50 2 18 -2 29 -12 33 -9 3 -16 10 -16 15 0 13 4 11 29 -10z
m-56 -20 c48 -19 10 -45 -86 -60 -40 -7 -47 -6 -43 6 4 8 6 28 6 45 0 30 0 30
48 25 26 -3 60 -10 75 -16z m-160 -218 c0 -32 4 -64 10 -71 8 -10 1 -10 -28 2
-22 9 -46 24 -53 33 -11 15 -14 16 -28 2 -13 -14 -11 -18 24 -43 21 -14 49
-29 62 -31 26 -5 40 -15 21 -15 -7 0 -9 -4 -6 -10 3 -5 5 -10 3 -10 -103 -13
-143 -25 -168 -53 -30 -32 -22 -63 20 -80 13 -5 13 -6 -1 -6 -29 -2 -60 37
-53 67 10 47 72 166 106 202 30 32 76 68 88 69 3 1 4 -25 3 -56z m112 4 c19
-17 19 -18 -5 -40 -14 -12 -38 -28 -54 -35 -25 -11 -28 -11 -22 3 3 9 6 41 6
71 l0 54 28 -17 c15 -10 36 -26 47 -36z m-112 -209 c-1 -18 -2 -39 -2 -46 -1
-10 -15 -12 -53 -9 -63 6 -88 15 -88 32 0 13 63 41 110 48 14 2 27 5 30 6 3 0
4 -14 3 -31z m110 18 c59 -6 122 -35 122 -56 0 -21 -62 -47 -136 -57 l-65 -9
3 61 c1 33 2 63 2 67 1 4 7 6 14 3 6 -2 34 -6 60 -9z"/>
<path d="M206 219 c-15 -12 -26 -30 -26 -44 0 -30 15 -41 17 -12 1 12 14 32
28 44 42 37 26 48 -19 12z"/>
<path d="M948 233 c6 -2 18 -2 25 0 6 3 1 5 -13 5 -14 0 -19 -2 -12 -5z"/>
<path d="M269 209 c7 -19 4 -30 -11 -49 -19 -23 -21 -23 -33 -7 -11 16 -13 15
-18 -10 -6 -33 -1 -43 21 -43 15 0 15 2 2 10 -13 8 -13 10 2 10 24 0 58 39 58
66 0 12 -7 27 -15 34 -14 11 -14 10 -6 -11z"/>
<path d="M925 210 c-14 -22 16 -41 53 -34 32 6 35 5 29 -15 -4 -18 -3 -20 9
-10 18 15 18 24 -2 43 -12 13 -20 14 -36 5 -17 -9 -24 -8 -34 5 -8 12 -14 14
-19 6z"/>
<path d="M316 136 c-20 -53 -21 -53 8 -72 19 -12 29 -13 43 -4 16 10 16 10 -3
5 -13 -3 -26 1 -34 10 -10 12 -9 22 7 54 15 30 17 41 8 45 -8 3 -19 -12 -29
-38z"/>
<path d="M850 168 c0 -8 7 -21 15 -28 8 -7 15 -18 14 -24 0 -7 -2 -6 -6 2 -8
20 -20 14 -17 -10 1 -13 3 -29 3 -35 1 -7 6 -13 11 -13 7 0 7 6 1 19 -14 24
11 36 39 19 10 -7 22 -9 26 -5 4 4 5 8 3 10 -2 1 -23 20 -47 42 -28 26 -42 34
-42 23z"/>
<path d="M395 140 c3 -5 11 -10 16 -10 6 0 7 5 4 10 -3 6 -11 10 -16 10 -6 0
-7 -4 -4 -10z"/>
<path d="M790 140 c0 -5 7 -10 16 -10 8 0 12 5 9 10 -3 6 -10 10 -16 10 -5 0
-9 -4 -9 -10z"/>
<path d="M965 140 c3 -5 11 -10 16 -10 6 0 7 5 4 10 -3 6 -11 10 -16 10 -6 0
-7 -4 -4 -10z"/>
<path d="M738 133 c-10 -2 -18 -11 -18 -19 0 -13 3 -13 17 2 16 16 18 15 25
-12 5 -16 9 -39 10 -51 1 -13 8 -23 16 -23 14 0 10 36 -9 88 -9 22 -11 23 -41
15z"/>
<path d="M463 110 c-8 -11 -9 -20 -2 -22 5 -2 10 -20 11 -41 1 -23 6 -37 14
-37 10 0 11 13 7 48 -7 63 -15 77 -30 52z"/>
<path d="M386 105 c-9 -26 -7 -32 5 -12 6 10 9 21 6 23 -2 3 -7 -2 -11 -11z"/>
<path d="M662 81 c5 -18 8 -45 5 -57 -4 -25 0 -29 20 -16 8 5 9 19 4 42 -4 20
-7 43 -5 52 1 10 -4 16 -16 15 -15 -1 -16 -6 -8 -36z"/>
<path d="M545 55 c0 -37 4 -55 13 -55 7 0 12 15 13 38 0 20 2 45 4 55 2 10 -3
17 -13 17 -14 0 -17 -10 -17 -55z"/>
<path d="M433 68 c-18 -24 -24 -38 -16 -38 10 0 36 40 30 46 -2 3 -9 -1 -14
-8z"/>
<path d="M610 20 c-8 -5 -11 -12 -7 -16 4 -4 13 -2 19 4 15 15 7 24 -12 12z"/>
</g>
</svg>
